<?xml version="1.0" encoding="utf-8"?>
<!-- Generator: Adobe Illustrator 27.2.0, SVG Export Plug-In . SVG Version: 6.00 Build 0)  -->
<svg version="1.1" id="Layer_1" xmlns="http://www.w3.org/2000/svg" xmlns:xlink="http://www.w3.org/1999/xlink" x="0px" y="0px"
	 viewBox="0 0 584 71" style="enable-background:new 0 0 584 71;" xml:space="preserve">
<g>
	<path d="M15.6-0.4v58.2h34.8V71H-0.1V-0.4H15.6z"/>
	<path d="M58.5,20.8c1.6-4.6,3.9-8.5,6.9-12c3-3.4,6.7-6.1,11-8c4.4-1.9,9.3-2.9,14.8-2.9c5.5,0,10.5,1,14.8,2.9c4.3,1.9,8,4.6,11,8
		c3,3.4,5.3,7.4,6.9,12c1.6,4.6,2.4,9.5,2.4,14.9c0,5.2-0.8,10-2.4,14.5s-3.9,8.4-6.9,11.8c-3,3.3-6.7,6-11,7.9
		c-4.3,1.9-9.3,2.9-14.8,2.9c-5.5,0-10.4-1-14.8-2.9c-4.4-1.9-8-4.5-11-7.9c-3-3.3-5.3-7.2-6.9-11.8c-1.6-4.5-2.4-9.4-2.4-14.5
		C56.1,30.3,56.9,25.3,58.5,20.8z M72.8,44.4c0.7,2.8,1.8,5.4,3.4,7.6c1.5,2.3,3.5,4.1,6,5.5c2.5,1.4,5.5,2,9,2c3.5,0,6.5-0.7,9-2
		c2.5-1.4,4.5-3.2,6-5.5c1.5-2.3,2.6-4.8,3.4-7.6c0.7-2.8,1-5.8,1-8.8c0-3.1-0.3-6.2-1-9.1c-0.7-2.9-1.8-5.5-3.4-7.9
		c-1.5-2.3-3.5-4.1-6-5.5c-2.5-1.4-5.5-2-9-2c-3.5,0-6.5,0.7-9,2c-2.5,1.4-4.5,3.2-6,5.5c-1.5,2.3-2.6,4.9-3.4,7.9
		c-0.7,2.9-1,6-1,9.1C71.8,38.6,72.1,41.5,72.8,44.4z"/>
	<path d="M179.3,70.5c-3.4,1.4-6.8,2.1-10.3,2.1c-5.5,0-10.4-1-14.8-2.9c-4.4-1.9-8-4.5-11-7.9c-3-3.3-5.3-7.2-6.9-11.8
		c-1.6-4.5-2.4-9.4-2.4-14.5c0-5.3,0.8-10.3,2.4-14.9c1.6-4.6,3.9-8.5,6.9-12c3-3.4,6.7-6.1,11-8c4.4-1.9,9.3-2.9,14.8-2.9
		c3.7,0,7.2,0.6,10.6,1.6c3.4,1.1,6.5,2.7,9.3,4.9c2.8,2.1,5,4.8,6.9,7.9c1.8,3.1,2.9,6.7,3.3,10.8h-15c-0.9-4-2.7-7-5.4-9
		c-2.7-2-5.9-3-9.7-3c-3.5,0-6.5,0.7-9,2c-2.5,1.4-4.5,3.2-6,5.5c-1.5,2.3-2.6,4.9-3.4,7.9c-0.7,2.9-1,6-1,9.1c0,3,0.4,5.9,1,8.8
		c0.7,2.8,1.8,5.4,3.4,7.6c1.5,2.3,3.5,4.1,6,5.5c2.5,1.4,5.5,2,9,2c5.2,0,9.2-1.3,12.1-4c2.8-2.6,4.5-6.4,4.9-11.4h-15.8V32.4h30
		V71h-10l-1.6-8.1C185.8,66.5,182.7,69,179.3,70.5z"/>
	<path d="M212.2,20.8c1.6-4.6,3.9-8.5,6.9-12c3-3.4,6.7-6.1,11.1-8c4.4-1.9,9.3-2.9,14.8-2.9c5.5,0,10.5,1,14.8,2.9
		c4.3,1.9,8,4.6,11,8c3,3.4,5.3,7.4,6.9,12c1.6,4.6,2.4,9.5,2.4,14.9c0,5.2-0.8,10-2.4,14.5s-3.9,8.4-6.9,11.8c-3,3.3-6.7,6-11,7.9
		s-9.3,2.9-14.8,2.9c-5.5,0-10.4-1-14.8-2.9c-4.4-1.9-8.1-4.5-11.1-7.9c-3-3.3-5.3-7.2-6.9-11.8c-1.6-4.5-2.4-9.4-2.4-14.5
		C209.8,30.3,210.6,25.3,212.2,20.8z M226.5,44.4c0.7,2.8,1.8,5.4,3.4,7.6c1.5,2.3,3.5,4.1,6,5.5c2.5,1.4,5.5,2,9,2
		c3.5,0,6.5-0.7,9-2c2.5-1.4,4.5-3.2,6-5.5c1.5-2.3,2.6-4.8,3.3-7.6c0.7-2.8,1-5.8,1-8.8c0-3.1-0.3-6.2-1-9.1
		c-0.7-2.9-1.8-5.5-3.3-7.9c-1.5-2.3-3.5-4.1-6-5.5c-2.5-1.4-5.5-2-9-2c-3.5,0-6.5,0.7-9,2c-2.5,1.4-4.5,3.2-6,5.5
		c-1.5,2.3-2.7,4.9-3.4,7.9c-0.7,2.9-1,6-1,9.1C225.5,38.6,225.8,41.5,226.5,44.4z"/>
	<path d="M334.2-0.4V27h28.9V-0.4h15.7V71h-15.7V40.2h-28.9V71h-15.7V-0.4H334.2z"/>
	<path d="M446-0.4v13.2h-37.7v15.3h34.6v12.2h-34.6v17.5h38.5V71h-54.2V-0.4H446z"/>
	<path d="M495.9-0.4c3.2,0,6.1,0.5,8.6,1.5c2.6,1,4.8,2.5,6.6,4.2c1.8,1.8,3.2,3.9,4.2,6.2c1,2.4,1.5,4.9,1.5,7.6
		c0,4.2-0.9,7.8-2.6,10.9c-1.8,3.1-4.7,5.4-8.7,7v0.2c1.9,0.5,3.5,1.4,4.8,2.5c1.3,1.1,2.3,2.4,3.1,3.9c0.8,1.5,1.4,3.1,1.8,5
		c0.4,1.8,0.6,3.6,0.8,5.4c0.1,1.1,0.1,2.5,0.2,4c0.1,1.5,0.2,3.1,0.4,4.7c0.2,1.6,0.4,3.1,0.8,4.6c0.4,1.4,0.9,2.6,1.7,3.6h-15.7
		c-0.9-2.3-1.4-5-1.6-8.1c-0.2-3.1-0.5-6.1-0.9-9c-0.5-3.7-1.7-6.5-3.4-8.2c-1.7-1.7-4.6-2.6-8.5-2.6h-15.7V71h-15.7V-0.4H495.9z
		 M490.3,31.9c3.6,0,6.3-0.8,8.1-2.4c1.8-1.6,2.7-4.2,2.7-7.8c0-3.5-0.9-6-2.7-7.6c-1.8-1.6-4.5-2.4-8.1-2.4h-17.2v20.1H490.3z"/>
	<path d="M583-0.4v13.2h-37.7v15.3h34.6v12.2h-34.6v17.5h38.5V71h-54.2V-0.4H583z"/>
</g>
<g>
</g>
<g>
</g>
<g>
</g>
<g>
</g>
<g>
</g>
<g>
</g>
<g>
</g>
<g>
</g>
<g>
</g>
<g>
</g>
<g>
</g>
<g>
</g>
<g>
</g>
<g>
</g>
<g>
</g>
</svg>
