<svg width="19" height="19" viewBox="0 0 19 19" fill="none" xmlns="http://www.w3.org/2000/svg">
<path d="M5.58643 0.724121C2.82543 0.724121 0.586426 2.96312 0.586426 5.72412V13.7241C0.586426 16.4851 2.82543 18.7241 5.58643 18.7241H13.5864C16.3474 18.7241 18.5864 16.4851 18.5864 13.7241V5.72412C18.5864 2.96312 16.3474 0.724121 13.5864 0.724121H5.58643ZM15.5864 2.72412C16.1384 2.72412 16.5864 3.17212 16.5864 3.72412C16.5864 4.27612 16.1384 4.72412 15.5864 4.72412C15.0344 4.72412 14.5864 4.27612 14.5864 3.72412C14.5864 3.17212 15.0344 2.72412 15.5864 2.72412ZM9.58643 4.72412C12.3474 4.72412 14.5864 6.96312 14.5864 9.72412C14.5864 12.4851 12.3474 14.7241 9.58643 14.7241C6.82543 14.7241 4.58643 12.4851 4.58643 9.72412C4.58643 6.96312 6.82543 4.72412 9.58643 4.72412ZM9.58643 6.72412C8.79078 6.72412 8.02771 7.04019 7.46511 7.6028C6.9025 8.16541 6.58643 8.92847 6.58643 9.72412C6.58643 10.5198 6.9025 11.2828 7.46511 11.8454C8.02771 12.4081 8.79078 12.7241 9.58643 12.7241C10.3821 12.7241 11.1451 12.4081 11.7077 11.8454C12.2704 11.2828 12.5864 10.5198 12.5864 9.72412C12.5864 8.92847 12.2704 8.16541 11.7077 7.6028C11.1451 7.04019 10.3821 6.72412 9.58643 6.72412Z" fill="black"/>
</svg>
