<svg width="16" height="16" viewBox="0 0 16 16" fill="none" xmlns="http://www.w3.org/2000/svg">
<path d="M13.95 0.164124H2.43001C1.43641 0.164124 0.630005 0.970524 0.630005 1.96412V13.4841C0.630005 14.4777 1.43641 15.2841 2.43001 15.2841H13.95C14.9436 15.2841 15.75 14.4777 15.75 13.4841V1.96412C15.75 0.970524 14.9436 0.164124 13.95 0.164124ZM5.31001 5.92412V12.7641H3.15001V5.92412H5.31001ZM3.15001 3.93332C3.15001 3.42932 3.58201 3.04412 4.23001 3.04412C4.87801 3.04412 5.28481 3.42932 5.31001 3.93332C5.31001 4.43732 4.90681 4.84412 4.23001 4.84412C3.58201 4.84412 3.15001 4.43732 3.15001 3.93332ZM13.23 12.7641H11.07C11.07 12.7641 11.07 9.43052 11.07 9.16412C11.07 8.44412 10.71 7.72412 9.81001 7.70972H9.78121C8.91001 7.70972 8.55001 8.45132 8.55001 9.16412C8.55001 9.49172 8.55001 12.7641 8.55001 12.7641H6.39001V5.92412H8.55001V6.84572C8.55001 6.84572 9.24481 5.92412 10.6416 5.92412C12.0708 5.92412 13.23 6.90692 13.23 8.89773V12.7641Z" fill="black"/>
</svg>
