<svg width="19" height="16" viewBox="0 0 19 16" fill="none" xmlns="http://www.w3.org/2000/svg">
<path d="M18.63 2.12795C17.9649 2.42326 17.2519 2.62155 16.5024 2.71155C17.2674 2.25311 17.8552 1.52748 18.1308 0.664045C17.4164 1.08733 16.6219 1.3953 15.7796 1.56123C15.1046 0.841233 14.1427 0.392639 13.0781 0.392639C11.0335 0.392639 9.37549 2.0492 9.37549 4.09389C9.37549 4.38358 9.40924 4.66623 9.47252 4.93764C6.39564 4.78295 3.66893 3.3092 1.84221 1.06905C1.52299 1.61748 1.34158 2.25311 1.34158 2.93092C1.34158 4.21483 1.99408 5.34826 2.9883 6.01342C2.3808 5.99373 1.80986 5.82639 1.31064 5.54936C1.31064 5.56483 1.31064 5.5803 1.31064 5.59576C1.31064 7.39014 2.58752 8.88498 4.27924 9.2267C3.96986 9.31108 3.64221 9.35608 3.30471 9.35608C3.06564 9.35608 2.83361 9.33358 2.60721 9.28858C3.07971 10.7581 4.44658 11.8311 6.06518 11.8606C4.79955 12.8534 3.20346 13.444 1.46814 13.444C1.16861 13.444 0.874707 13.4272 0.586426 13.392C2.2233 14.4439 4.16955 15.0556 6.26064 15.0556C13.0697 15.0556 16.7935 9.41514 16.7935 4.5242C16.7935 4.36389 16.7892 4.20217 16.7836 4.04467C17.5064 3.52295 18.1336 2.87045 18.63 2.12795Z" fill="black"/>
</svg>
